# xmcd
#
# Track frame offsets:
# 180
# 20944
# 40327
# 58448
# 71587
# 73226
# 88225
# 106200
# 122373
# 138431
# 155093
# 165754
# 179717
# 194570
# 209233
# 227568
# 240803
# 258861
#
# Disc length: 3482 seconds
#
#
# Revision: 0
# Processed by: cddbd v1.5.1PL0 Copyright (c) Steve Scherf et al.
# Submitted via: FreeRIP 2.92 
#
DISCID=0e0d9812
DTITLE=Michel und der Bergedorfer - Seefahrt tut Not
DYEAR=1996
DGENRE=Alt. Rock
TTITLE0=Die Guten und die Bösen
TTITLE1=Jeans
TTITLE2=Eldorado
TTITLE3=Seefahrt tut Not
TTITLE4=Rote Lippen
TTITLE5=Ex und Hopp
TTITLE6=Der Sünder
TTITLE7=Alle Jahre wieder
TTITLE8=Irgendwann is' gut (Janin, Janin...)
TTITLE9=Der Optimist
TTITLE10=Scheiß drauf
TTITLE11=Olala
TTITLE12=Neulich ( im Cafe Größenwahn)
TTITLE13=Komm und erschieß dich!
TTITLE14=Auf der Umlaufbahn
TTITLE15=Wir lieben die Stürme
TTITLE16=Westwärts um Kap Hoorn
TTITLE17=Gruß an Suzi und Joocken
EXTD=
EXTT0=
EXTT1=
EXTT2=
EXTT3=
EXTT4=
EXTT5=
EXTT6=
EXTT7=
EXTT8=
EXTT9=
EXTT10=
EXTT11=
EXTT12=
EXTT13=
EXTT14=
EXTT15=
EXTT16=
EXTT17=
PLAYORDER=
